# xmcd
#
# Track frame offsets:
#	150
#	14411
#	29208
#	49217
#	65371
#	81933
#	95021
#	114405
#	131496
#	144359
#	160607
#	175661
#
# Disc length: 2544 seconds
#
# Revision: 0
# Processed by: cddbd v1.5.2PL0 Copyright (c) Steve Scherf et al.
# Submitted via: EasyCDDAExtractor 7.1.2.1
#
DISCID=9e09ee0c
DTITLE=April Taylor - I Wanna Live Like That
DYEAR=2005
DGENRE=Country
TTITLE0=Just Another Hurt
TTITLE1=A Girl's Allowed To Change Her Mind
TTITLE2=Hero At Home
TTITLE3=What It Takes
TTITLE4=Reckless Heart
TTITLE5=This Is Forever
TTITLE6=Being Tough
TTITLE7=I See
TTITLE8=All My Love
TTITLE9=I Wanna Live Like That
TTITLE10=Sammy B and Me
TTITLE11=Rush In
EXTD=
EXTT0=
EXTT1=
EXTT2=
EXTT3=
EXTT4=
EXTT5=
EXTT6=
EXTT7=
EXTT8=
EXTT9=
EXTT10=
EXTT11=
PLAYORDER=
